<svg width="600" height="378" viewBox="0 0 600 378" fill="none" xmlns="http://www.w3.org/2000/svg">
<rect width="600" height="378" fill="black"/>
<path fill-rule="evenodd" clip-rule="evenodd" d="M74 258C66.8203 258 61 252.18 61 245L61 57C61 49.8203 66.8203 44 74 44L526 44C533.18 44 539 49.8203 539 57V245C539 252.18 533.18 258 526 258H495.32C491.731 258 488.82 260.91 488.82 264.5V264.5C488.82 268.09 491.731 271 495.32 271H539V271C546.18 271 552 265.18 552 258V258V44V44C552 36.8203 546.18 31 539 31V31L61 31V31C53.8203 31 48 36.8203 48 44V44L48 258V258C48 265.18 53.8203 271 61 271V271H103.244C106.833 271 109.744 268.09 109.744 264.5V264.5C109.744 260.91 106.833 258 103.244 258H74Z" fill="url(#paint0_linear_102_171)"/>
<mask id="mask0_102_171" style="mask-type:alpha" maskUnits="userSpaceOnUse" x="99" y="81" width="407" height="141">
<rect x="247" y="81" width="95" height="24" fill="black"/>
<rect x="247" y="198" width="95" height="24" fill="black"/>
<rect x="247" y="139" width="84" height="24" fill="black"/>
<rect x="99" y="81" width="47" height="24" fill="black"/>
<rect x="99" y="198" width="47" height="24" fill="black"/>
<path fill-rule="evenodd" clip-rule="evenodd" d="M215 151.5C215 190.269 183.706 221.729 145 221.998V197.984C171.353 197.807 192.66 177.06 192.66 151.492C192.66 125.924 171.353 105.177 145 105V81.0017C183.706 81.2705 215 112.731 215 151.5Z" fill="black"/>
<path d="M366 81H394.5L436 168V219L366 81Z" fill="black"/>
<path d="M505.5 81H477L436 168V219L505.5 81Z" fill="black"/>
</mask>
<g mask="url(#mask0_102_171)">
<rect x="75" y="-60" width="461" height="282" fill="url(#paint1_linear_102_171)"/>
</g>
<line x1="312.5" y1="335.5" x2="312.5" y2="288.5" stroke="url(#paint2_linear_102_171)" stroke-width="13" stroke-linecap="round"/>
<path d="M270 336H330" stroke="url(#paint3_linear_102_171)" stroke-width="13" stroke-linecap="round"/>
<line x1="288.5" y1="335.5" x2="288.5" y2="265.5" stroke="white" stroke-width="13" stroke-linecap="round"/>
<defs>
<linearGradient id="paint0_linear_102_171" x1="48" y1="151" x2="552" y2="151" gradientUnits="userSpaceOnUse">
<stop stop-color="white"/>
<stop offset="1" stop-color="#363636"/>
</linearGradient>
<linearGradient id="paint1_linear_102_171" x1="305.5" y1="-60" x2="305.5" y2="222" gradientUnits="userSpaceOnUse">
<stop stop-color="white"/>
<stop offset="1" stop-color="#6D6D6D"/>
</linearGradient>
<linearGradient id="paint2_linear_102_171" x1="313" y1="282" x2="313.5" y2="329.5" gradientUnits="userSpaceOnUse">
<stop stop-color="#181818"/>
<stop offset="1" stop-color="#ADADAD"/>
</linearGradient>
<linearGradient id="paint3_linear_102_171" x1="302" y1="335" x2="307" y2="330" gradientUnits="userSpaceOnUse">
<stop stop-color="white"/>
<stop offset="1" stop-color="#ACACAC"/>
</linearGradient>
</defs>
</svg>
